# xmcd CD database file
#
# Track frame offsets:
#	150
#	19801
#	33481
#	49374
#	64394
#	79102
#	92507
#	108531
#	124698
#	140207
#	153771
#	171772
#	190401
#	208913
#	223754
#
# Disc length: 3204 seconds
#
# Revision: 0
# Processed by: cddbd v1.5.2PL0 Copyright (c) Steve Scherf et al.
# Submitted via: CDex 1.51
#
DISCID=e00c820f
DTITLE='Get up and Dance special nr.61 - Get up and dance special nr.61
DYEAR=2008
DGENRE=Country
TTITLE0=Payday!!
TTITLE1=Get Your Feet Dwon
TTITLE2=A Bad Morning For leaving
TTITLE3=1-2 Step
TTITLE4=Oh Suzannah
TTITLE5=What Can I Do
TTITLE6=Crazy Foot Mambo
TTITLE7=Cadillac Comeback
TTITLE8=Can't Forget You
TTITLE9=Moonlight Serenade
TTITLE10=Mercy
TTITLE11=Yellowbrid Cha Cha
TTITLE12=Whisper In The Wind
TTITLE13=Did You Ever
TTITLE14=Cockadoodle
EXTD=YEAR: 2008
EXTT0=
EXTT1=
EXTT2=
EXTT3=
EXTT4=
EXTT5=
EXTT6=
EXTT7=
EXTT8=
EXTT9=
EXTT10=
EXTT11=
EXTT12=
EXTT13=
EXTT14=
PLAYORDER=
